<?xml version="1.0" encoding="utf-8" ?>
<svg xmlns="http://www.w3.org/2000/svg" xmlns:xlink="http://www.w3.org/1999/xlink" width="256" height="256">
	<path fill="gray" fill-opacity="0.3764706" d="M255.692 121.727Q255.384 115.454 254.462 109.241Q253.541 103.028 252.014 96.936Q250.488 90.8436 248.372 84.93Q246.257 79.0165 243.571 73.3389Q240.886 67.6612 237.657 62.2741Q234.428 56.887 230.687 51.8423Q226.945 46.7977 222.728 42.144Q218.51 37.4903 213.856 33.2725Q209.202 29.0547 204.158 25.3133Q199.113 21.5719 193.726 18.343Q188.339 15.1141 182.661 12.4287Q176.983 9.74342 171.07 7.62753Q165.156 5.51164 159.064 3.98556Q152.972 2.45948 146.759 1.53792Q140.546 0.616355 134.273 0.308178Q128 0 121.727 0.308178Q115.454 0.616355 109.241 1.53792Q103.028 2.45948 96.936 3.98556Q90.8436 5.51164 84.93 7.62753Q79.0165 9.74342 73.3389 12.4287Q67.6612 15.1141 62.2741 18.343Q56.887 21.5719 51.8423 25.3133Q46.7977 29.0547 42.144 33.2725Q37.4903 37.4903 33.2725 42.144Q29.0547 46.7977 25.3133 51.8423Q21.5719 56.887 18.343 62.2741Q15.1141 67.6612 12.4287 73.3389Q9.74342 79.0165 7.62753 84.93Q5.51164 90.8436 3.98556 96.936Q2.45948 103.028 1.53792 109.241Q0.616355 115.454 0.308178 121.727Q0 128 0.308178 134.273Q0.616355 140.546 1.53792 146.759Q2.45948 152.972 3.98556 159.064Q5.51164 165.156 7.62753 171.07Q9.74342 176.983 12.4287 182.661Q15.1141 188.339 18.343 193.726Q21.5719 199.113 25.3133 204.158Q29.0547 209.202 33.2725 213.856Q37.4903 218.51 42.144 222.728Q46.7977 226.945 51.8423 230.687Q56.887 234.428 62.2741 237.657Q67.6612 240.886 73.3389 243.571Q79.0165 246.257 84.93 248.372Q90.8436 250.488 96.936 252.014Q103.028 253.541 109.241 254.462Q115.454 255.384 121.727 255.692Q128 256 134.273 255.692Q140.546 255.384 146.759 254.462Q152.972 253.541 159.064 252.014Q165.156 250.488 171.07 248.372Q176.983 246.257 182.661 243.571Q188.339 240.886 193.726 237.657Q199.113 234.428 204.158 230.687Q209.202 226.945 213.856 222.728Q218.51 218.51 222.728 213.856Q226.945 209.202 230.687 204.158Q234.428 199.113 237.657 193.726Q240.886 188.339 243.571 182.661Q246.257 176.983 248.372 171.07Q250.488 165.156 252.014 159.064Q253.541 152.972 254.462 146.759Q255.384 140.546 255.692 134.273Q256 128 255.692 121.727Z"/>
	<path fill="#202020" d="M249.706 122.021Q249.413 116.042 248.534 110.12Q247.656 104.199 246.201 98.3921Q244.747 92.5853 242.73 86.9489Q240.713 81.3126 238.154 75.9011Q235.594 70.4896 232.517 65.355Q229.439 60.2204 225.873 55.4122Q222.307 50.604 218.287 46.1685Q214.267 41.733 209.832 37.7128Q205.396 33.6927 200.588 30.1267Q195.78 26.5607 190.645 23.4832Q185.51 20.4056 180.099 17.8462Q174.687 15.2867 169.051 13.27Q163.415 11.2533 157.608 9.79874Q151.801 8.3442 145.88 7.46583Q139.958 6.58746 133.979 6.29373Q128 6 122.021 6.29373Q116.042 6.58746 110.12 7.46583Q104.199 8.3442 98.3921 9.79874Q92.5853 11.2533 86.9489 13.27Q81.3126 15.2867 75.9011 17.8462Q70.4896 20.4056 65.355 23.4832Q60.2204 26.5607 55.4122 30.1267Q50.604 33.6927 46.1685 37.7128Q41.733 41.733 37.7128 46.1685Q33.6927 50.604 30.1267 55.4122Q26.5607 60.2204 23.4832 65.355Q20.4056 70.4896 17.8462 75.9011Q15.2867 81.3126 13.27 86.9489Q11.2533 92.5853 9.79874 98.3921Q8.3442 104.199 7.46583 110.12Q6.58746 116.042 6.29373 122.021Q6 128 6.29373 133.979Q6.58746 139.958 7.46583 145.88Q8.3442 151.801 9.79874 157.608Q11.2533 163.415 13.27 169.051Q15.2867 174.687 17.8462 180.099Q20.4056 185.51 23.4832 190.645Q26.5607 195.78 30.1267 200.588Q33.6927 205.396 37.7128 209.832Q41.733 214.267 46.1685 218.287Q50.604 222.307 55.4122 225.873Q60.2204 229.439 65.355 232.517Q70.4896 235.594 75.9011 238.154Q81.3126 240.713 86.9489 242.73Q92.5853 244.747 98.3921 246.201Q104.199 247.656 110.12 248.534Q116.042 249.413 122.021 249.706Q128 250 133.979 249.706Q139.958 249.413 145.88 248.534Q151.801 247.656 157.608 246.201Q163.415 244.747 169.051 242.73Q174.687 240.713 180.099 238.154Q185.51 235.594 190.645 232.517Q195.78 229.439 200.588 225.873Q205.396 222.307 209.832 218.287Q214.267 214.267 218.287 209.832Q222.307 205.396 225.873 200.588Q229.439 195.78 232.517 190.645Q235.594 185.51 238.154 180.099Q240.713 174.687 242.73 169.051Q244.747 163.415 246.201 157.608Q247.656 151.801 248.534 145.88Q249.413 139.958 249.706 133.979Q250 128 249.706 122.021Z"/>
	<path fill="#CC8080" d="M50.9046 61L51 61Q61 61 61 51L61 50.9046Q61 40.9046 55.6091 45.5614Q50.2183 50.2183 45.5614 55.6091Q40.9046 61 50.9046 61Z"/>
	<path fill="#BF8D55" d="M73 42.8745L73 51Q73 61 83 61L112 61Q122 61 122 51L122 28.2948Q122 18.2948 114.27 19.2042Q106.54 20.1136 101.304 21.4251Q96.0687 22.7366 90.9868 24.5549Q85.9048 26.3733 79.4524 29.6239Q73 32.8745 73 42.8745Z"/>
	<path fill="#79A76E" d="M134 28.2948L134 51Q134 61 144 61L173 61Q183 61 183 51L183 42.8745Q183 32.8745 176.548 29.6239Q170.095 26.3733 165.013 24.5549Q159.931 22.7366 154.696 21.4251Q149.46 20.1136 141.73 19.2042Q134 18.2948 134 28.2948Z"/>
	<path fill="#5AA1CB" d="M195 50.9046L195 51Q195 61 205 61L205.095 61Q215.095 61 210.439 55.6091Q205.782 50.2183 200.391 45.5614Q195 40.9046 195 50.9046Z"/>
	<path fill="#C98568" d="M28.2948 122L51 122Q61 122 61 112L61 83Q61 73 51 73L42.8745 73Q32.8745 73 29.6239 79.4524Q26.3733 85.9048 24.5549 90.9868Q22.7366 96.0687 21.4251 101.304Q20.1136 106.54 19.2042 114.27Q18.2948 122 28.2948 122Z"/>
	<path fill="#959F59" d="M73 83L73 112Q73 122 83 122L112 122Q122 122 122 112L122 83Q122 73 112 73L83 73Q73 73 73 83Z"/>
	<path fill="#45A8BA" d="M134 83L134 112Q134 122 144 122L173 122Q183 122 183 112L183 83Q183 73 173 73L144 73Q134 73 134 83Z"/>
	<path fill="#A888C5" d="M195 83L195 112Q195 122 205 122L227.705 122Q237.705 122 236.796 114.27Q235.886 106.54 234.575 101.304Q233.263 96.0687 231.445 90.9868Q229.627 85.9048 226.376 79.4524Q223.125 73 213.125 73L205 73Q195 73 195 83Z"/>
	<path fill="#AD9650" d="M19.2042 141.73Q20.1136 149.46 21.4251 154.696Q22.7366 159.931 24.5549 165.013Q26.3733 170.095 29.6239 176.548Q32.8745 183 42.8745 183L51 183Q61 183 61 173L61 144Q61 134 51 134L28.2948 134Q18.2948 134 19.2042 141.73Z"/>
	<path fill="#45ABA3" d="M73 144L73 173Q73 183 83 183L112 183Q122 183 122 173L122 144Q122 134 112 134L83 134Q73 134 73 144Z"/>
	<path fill="#9190D1" d="M134 144L134 173Q134 183 144 183L173 183Q183 183 183 173L183 144Q183 134 173 134L144 134Q134 134 134 144Z"/>
	<path fill="#C77F9A" d="M195 144L195 173Q195 183 205 183L213.125 183Q223.125 183 226.376 176.548Q229.627 170.095 231.445 165.013Q233.263 159.931 234.575 154.696Q235.886 149.46 236.796 141.73Q237.705 134 227.705 134L205 134Q195 134 195 144Z"/>
	<path fill="#5BAB88" d="M45.5614 200.391Q50.2183 205.782 55.6091 210.439Q61 215.095 61 205.095L61 205Q61 195 51 195L50.9046 195Q40.9046 195 45.5614 200.391Z"/>
	<path fill="#7599D3" d="M73 205L73 213.125Q73 223.125 79.4524 226.376Q85.9048 229.627 90.9868 231.445Q96.0687 233.263 101.304 234.575Q106.54 235.886 114.27 236.796Q122 237.705 122 227.705L122 205Q122 195 112 195L83 195Q73 195 73 205Z"/>
	<path fill="#BB82B2" d="M134 205L134 227.705Q134 237.705 141.73 236.796Q149.46 235.886 154.696 234.575Q159.931 233.263 165.013 231.445Q170.095 229.627 176.548 226.376Q183 223.125 183 213.125L183 205Q183 195 173 195L144 195Q134 195 134 205Z"/>
	<path fill="#CC8080" d="M195 205L195 205.095Q195 215.095 200.391 210.439Q205.782 205.782 210.439 200.391Q215.095 195 205.095 195L205 195Q195 195 195 205Z"/>
</svg>
