<?xml version="1.0" encoding="utf-8" ?>
<svg xmlns="http://www.w3.org/2000/svg" xmlns:xlink="http://www.w3.org/1999/xlink" width="256" height="256">
	<path fill="gray" fill-opacity="0.25098041" d="M255.692 121.727Q255.384 115.454 254.462 109.241Q253.541 103.028 252.014 96.936Q250.488 90.8436 248.372 84.93Q246.257 79.0165 243.571 73.3389Q240.886 67.6612 237.657 62.2741Q234.428 56.887 230.687 51.8423Q226.945 46.7977 222.728 42.144Q218.51 37.4903 213.856 33.2725Q209.202 29.0547 204.158 25.3133Q199.113 21.5719 193.726 18.343Q188.339 15.1141 182.661 12.4287Q176.983 9.74342 171.07 7.62753Q165.156 5.51164 159.064 3.98556Q152.972 2.45948 146.759 1.53792Q140.546 0.616355 134.273 0.308178Q128 0 121.727 0.308178Q115.454 0.616355 109.241 1.53792Q103.028 2.45948 96.936 3.98556Q90.8436 5.51164 84.93 7.62753Q79.0165 9.74342 73.3389 12.4287Q67.6612 15.1141 62.2741 18.343Q56.887 21.5719 51.8423 25.3133Q46.7977 29.0547 42.144 33.2725Q37.4903 37.4903 33.2725 42.144Q29.0547 46.7977 25.3133 51.8423Q21.5719 56.887 18.343 62.2741Q15.1141 67.6612 12.4287 73.3389Q9.74342 79.0165 7.62753 84.93Q5.51164 90.8436 3.98556 96.936Q2.45948 103.028 1.53792 109.241Q0.616355 115.454 0.308178 121.727Q0 128 0.308178 134.273Q0.616355 140.546 1.53792 146.759Q2.45948 152.972 3.98556 159.064Q5.51164 165.156 7.62753 171.07Q9.74342 176.983 12.4287 182.661Q15.1141 188.339 18.343 193.726Q21.5719 199.113 25.3133 204.158Q29.0547 209.202 33.2725 213.856Q37.4903 218.51 42.144 222.728Q46.7977 226.945 51.8423 230.687Q56.887 234.428 62.2741 237.657Q67.6612 240.886 73.3389 243.571Q79.0165 246.257 84.93 248.372Q90.8436 250.488 96.936 252.014Q103.028 253.541 109.241 254.462Q115.454 255.384 121.727 255.692Q128 256 134.273 255.692Q140.546 255.384 146.759 254.462Q152.972 253.541 159.064 252.014Q165.156 250.488 171.07 248.372Q176.983 246.257 182.661 243.571Q188.339 240.886 193.726 237.657Q199.113 234.428 204.158 230.687Q209.202 226.945 213.856 222.728Q218.51 218.51 222.728 213.856Q226.945 209.202 230.687 204.158Q234.428 199.113 237.657 193.726Q240.886 188.339 243.571 182.661Q246.257 176.983 248.372 171.07Q250.488 165.156 252.014 159.064Q253.541 152.972 254.462 146.759Q255.384 140.546 255.692 134.273Q256 128 255.692 121.727Z"/>
	<path fill="#202020" d="M243.721 122.315Q243.441 116.63 242.606 111Q241.771 105.37 240.388 99.8483Q239.005 94.327 237.088 88.9678Q235.17 83.6087 232.736 78.4633Q230.303 73.318 227.377 68.4359Q224.45 63.5539 221.06 58.9821Q217.669 54.4104 213.847 50.193Q210.024 45.9756 205.807 42.1532Q201.59 38.3308 197.018 34.9402Q192.446 31.5495 187.564 28.6233Q182.682 25.6971 177.537 23.2636Q172.391 20.83 167.032 18.9124Q161.673 16.9949 156.152 15.6119Q150.63 14.2289 145 13.3937Q139.37 12.5586 133.685 12.2793Q128 12 122.315 12.2793Q116.63 12.5586 111 13.3937Q105.37 14.2289 99.8483 15.6119Q94.327 16.9949 88.9678 18.9124Q83.6087 20.83 78.4633 23.2636Q73.318 25.6971 68.4359 28.6233Q63.5539 31.5495 58.9821 34.9402Q54.4104 38.3308 50.193 42.1532Q45.9756 45.9756 42.1532 50.193Q38.3308 54.4104 34.9402 58.9821Q31.5495 63.5539 28.6233 68.4359Q25.6971 73.318 23.2636 78.4633Q20.83 83.6087 18.9124 88.9678Q16.9949 94.327 15.6119 99.8483Q14.2289 105.37 13.3937 111Q12.5586 116.63 12.2793 122.315Q12 128 12.2793 133.685Q12.5586 139.37 13.3937 145Q14.2289 150.63 15.6119 156.152Q16.9949 161.673 18.9124 167.032Q20.83 172.391 23.2636 177.537Q25.6971 182.682 28.6233 187.564Q31.5495 192.446 34.9402 197.018Q38.3308 201.59 42.1532 205.807Q45.9756 210.024 50.193 213.847Q54.4104 217.669 58.9821 221.06Q63.5539 224.45 68.4359 227.377Q73.318 230.303 78.4633 232.736Q83.6087 235.17 88.9678 237.088Q94.327 239.005 99.8483 240.388Q105.37 241.771 111 242.606Q116.63 243.441 122.315 243.721Q128 244 133.685 243.721Q139.37 243.441 145 242.606Q150.63 241.771 156.152 240.388Q161.673 239.005 167.032 237.088Q172.391 235.17 177.537 232.736Q182.682 230.303 187.564 227.377Q192.446 224.45 197.018 221.06Q201.59 217.669 205.807 213.847Q210.024 210.024 213.847 205.807Q217.669 201.59 221.06 197.018Q224.45 192.446 227.377 187.564Q230.303 182.682 232.736 177.537Q235.17 172.391 237.088 167.032Q239.005 161.673 240.388 156.152Q241.771 150.63 242.606 145Q243.441 139.37 243.721 133.685Q244 128 243.721 122.315Z"/>
	<path fill="#CC8080" d="M54.7671 61Q61 61 61 54.7671Q61 48.5342 57.7304 51.4975Q54.4609 54.4609 51.4975 57.7304Q48.5342 61 54.7671 61Z"/>
	<path fill="#BF8D55" d="M73 49.8613L73 51Q73 61 83 61L112 61Q122 61 122 51L122 34.2948Q122 24.2948 114.855 25.1465Q107.711 25.9983 102.76 27.2383Q97.8104 28.4782 93.0057 30.1974Q88.2009 31.9165 80.6005 35.8889Q73 39.8613 73 49.8613Z"/>
	<path fill="#79A76E" d="M134 34.2948L134 51Q134 61 144 61L173 61Q183 61 183 51L183 49.8613Q183 39.8613 175.4 35.8889Q167.799 31.9165 162.994 30.1974Q158.19 28.4782 153.24 27.2383Q148.289 25.9983 141.145 25.1465Q134 24.2948 134 34.2948Z"/>
	<path fill="#5AA1CB" d="M195 54.7671Q195 61 201.233 61Q207.466 61 204.502 57.7304Q201.539 54.4609 198.27 51.4975Q195 48.5342 195 54.7671Z"/>
	<path fill="#C98568" d="M34.2948 122L51 122Q61 122 61 112L61 83Q61 73 51 73L49.8613 73Q39.8613 73 35.8889 80.6005Q31.9165 88.2009 30.1974 93.0057Q28.4782 97.8104 27.2383 102.76Q25.9983 107.711 25.1465 114.855Q24.2948 122 34.2948 122Z"/>
	<path fill="#959F59" d="M73 83L73 112Q73 122 83 122L112 122Q122 122 122 112L122 83Q122 73 112 73L83 73Q73 73 73 83Z"/>
	<path fill="#45A8BA" d="M134 83L134 112Q134 122 144 122L173 122Q183 122 183 112L183 83Q183 73 173 73L144 73Q134 73 134 83Z"/>
	<path fill="#A888C5" d="M195 83L195 112Q195 122 205 122L221.705 122Q231.705 122 230.853 114.855Q230.002 107.711 228.762 102.76Q227.522 97.8104 225.803 93.0057Q224.083 88.2009 220.111 80.6005Q216.139 73 206.139 73L205 73Q195 73 195 83Z"/>
	<path fill="#AD9650" d="M25.1465 141.145Q25.9983 148.289 27.2383 153.24Q28.4782 158.19 30.1974 162.994Q31.9165 167.799 35.8889 175.4Q39.8613 183 49.8613 183L51 183Q61 183 61 173L61 144Q61 134 51 134L34.2948 134Q24.2948 134 25.1465 141.145Z"/>
	<path fill="#45ABA3" d="M73 144L73 173Q73 183 83 183L112 183Q122 183 122 173L122 144Q122 134 112 134L83 134Q73 134 73 144Z"/>
	<path fill="#9190D1" d="M134 144L134 173Q134 183 144 183L173 183Q183 183 183 173L183 144Q183 134 173 134L144 134Q134 134 134 144Z"/>
	<path fill="#C77F9A" d="M195 144L195 173Q195 183 205 183L206.139 183Q216.139 183 220.111 175.4Q224.083 167.799 225.803 162.994Q227.522 158.19 228.762 153.24Q230.002 148.289 230.853 141.145Q231.705 134 221.705 134L205 134Q195 134 195 144Z"/>
	<path fill="#5BAB88" d="M51.4975 198.27Q54.4609 201.539 57.7304 204.502Q61 207.466 61 201.233Q61 195 54.7671 195Q48.5342 195 51.4975 198.27Z"/>
	<path fill="#7599D3" d="M73 205L73 206.139Q73 216.139 80.6005 220.111Q88.2009 224.083 93.0057 225.803Q97.8104 227.522 102.76 228.762Q107.711 230.002 114.855 230.853Q122 231.705 122 221.705L122 205Q122 195 112 195L83 195Q73 195 73 205Z"/>
	<path fill="#BB82B2" d="M134 205L134 221.705Q134 231.705 141.145 230.853Q148.289 230.002 153.24 228.762Q158.19 227.522 162.994 225.803Q167.799 224.083 175.4 220.111Q183 216.139 183 206.139L183 205Q183 195 173 195L144 195Q134 195 134 205Z"/>
	<path fill="#CC8080" d="M195 201.233Q195 207.466 201.233 201.233Q207.466 195 201.233 195Q195 195 195 201.233Z"/>
</svg>
